<mxfile host="app.diagrams.net" modified="2023-03-11T20:44:09.245Z" agent="5.0 (Windows NT 10.0; Win64; x64) AppleWebKit/537.36 (KHTML, like Gecko) Chrome/111.0.0.0 Safari/537.36" etag="BZTLqamT2jcXC1IvpqZT" version="21.0.6" type="github">
  <diagram name="Page-1" id="bogNzPYOoFLCBacCzL5H">
    <mxGraphModel dx="814" dy="905" grid="1" gridSize="10" guides="1" tooltips="1" connect="1" arrows="1" fold="1" page="1" pageScale="1" pageWidth="850" pageHeight="1100" math="0" shadow="0">
      <root>
        <mxCell id="0" />
        <mxCell id="1" parent="0" />
        <mxCell id="ezZ92j0wQIy79cVgiJs7-1" value="Actor" style="shape=umlActor;verticalLabelPosition=bottom;verticalAlign=top;html=1;outlineConnect=0;" vertex="1" parent="1">
          <mxGeometry x="60" y="330" width="30" height="60" as="geometry" />
        </mxCell>
        <mxCell id="ezZ92j0wQIy79cVgiJs7-6" style="edgeStyle=orthogonalEdgeStyle;rounded=0;orthogonalLoop=1;jettySize=auto;html=1;entryX=0;entryY=0.5;entryDx=0;entryDy=0;" edge="1" parent="1" source="ezZ92j0wQIy79cVgiJs7-2" target="ezZ92j0wQIy79cVgiJs7-3">
          <mxGeometry relative="1" as="geometry" />
        </mxCell>
        <mxCell id="ezZ92j0wQIy79cVgiJs7-2" value="Navigates to Reboundr&#39;s homepage" style="rounded=1;whiteSpace=wrap;html=1;" vertex="1" parent="1">
          <mxGeometry x="150" y="330" width="120" height="60" as="geometry" />
        </mxCell>
        <mxCell id="ezZ92j0wQIy79cVgiJs7-7" style="edgeStyle=orthogonalEdgeStyle;rounded=0;orthogonalLoop=1;jettySize=auto;html=1;entryX=0;entryY=0.5;entryDx=0;entryDy=0;" edge="1" parent="1" source="ezZ92j0wQIy79cVgiJs7-3" target="ezZ92j0wQIy79cVgiJs7-4">
          <mxGeometry relative="1" as="geometry" />
        </mxCell>
        <mxCell id="ezZ92j0wQIy79cVgiJs7-3" value="User logs in" style="rounded=1;whiteSpace=wrap;html=1;" vertex="1" parent="1">
          <mxGeometry x="305" y="330" width="120" height="60" as="geometry" />
        </mxCell>
        <mxCell id="ezZ92j0wQIy79cVgiJs7-8" style="edgeStyle=orthogonalEdgeStyle;rounded=0;orthogonalLoop=1;jettySize=auto;html=1;" edge="1" parent="1" source="ezZ92j0wQIy79cVgiJs7-4" target="ezZ92j0wQIy79cVgiJs7-5">
          <mxGeometry relative="1" as="geometry" />
        </mxCell>
        <mxCell id="ezZ92j0wQIy79cVgiJs7-4" value="User clicks on the &quot;Mock Interview&quot; link on the app&#39;s navbar" style="rounded=1;whiteSpace=wrap;html=1;" vertex="1" parent="1">
          <mxGeometry x="470" y="330" width="120" height="60" as="geometry" />
        </mxCell>
        <mxCell id="ezZ92j0wQIy79cVgiJs7-5" value="User is redirected to the interview configuration page" style="rounded=1;whiteSpace=wrap;html=1;" vertex="1" parent="1">
          <mxGeometry x="630" y="330" width="120" height="60" as="geometry" />
        </mxCell>
        <mxCell id="ezZ92j0wQIy79cVgiJs7-10" value="" style="shape=flexArrow;endArrow=classic;html=1;rounded=0;" edge="1" parent="1" source="ezZ92j0wQIy79cVgiJs7-1" target="ezZ92j0wQIy79cVgiJs7-2">
          <mxGeometry width="50" height="50" relative="1" as="geometry">
            <mxPoint x="110" y="360" as="sourcePoint" />
            <mxPoint x="130" y="230" as="targetPoint" />
          </mxGeometry>
        </mxCell>
      </root>
    </mxGraphModel>
  </diagram>
</mxfile>
